<?xml version="1.0" encoding="utf-8"?>
<!-- Generator: Adobe Illustrator 26.0.3, SVG Export Plug-In . SVG Version: 6.00 Build 0)  -->
<svg version="1.1" id="Layer_1" xmlns="http://www.w3.org/2000/svg" xmlns:xlink="http://www.w3.org/1999/xlink" x="0px" y="0px"
	 viewBox="0 0 120.49 121.18" style="enable-background:new 0 0 120.49 121.18;" xml:space="preserve">
<style type="text/css">
	.st0{fill:#E7211A;}
	.st1{fill:#FFFFFF;}
</style>
<circle class="st0" cx="60.13" cy="60.2" r="59.56"/>
<g>
	<path class="st1" d="M42.6,87.39c-1.99,0-3.68-0.69-5.06-2.07c-1.38-1.38-2.07-3.07-2.07-5.06v-8.49h8.63V33.02l4.08,4.08
		l4.08-4.08l4.01,4.08l4.08-4.08l4.08,4.08l4.08-4.08l4.08,4.08l4.08-4.08l4.08,4.08l4.08-4.08v47.23c0,1.99-0.69,3.68-2.07,5.06
		c-1.38,1.38-3.07,2.07-5.06,2.07H42.6z M77.66,83.31c0.91,0,1.64-0.28,2.21-0.85s0.85-1.3,0.85-2.21V39.81H48.17v31.94h26.44v8.49
		c0,0.91,0.28,1.64,0.85,2.21S76.76,83.31,77.66,83.31z M51.77,50.55v-4.08h16.31v4.08H51.77z M51.77,59.66v-4.08h16.31v4.08H51.77z
		 M74.4,50.55c-0.54,0-1.02-0.2-1.43-0.61c-0.41-0.41-0.61-0.88-0.61-1.43s0.2-1.02,0.61-1.43c0.41-0.41,0.88-0.61,1.43-0.61
		c0.54,0,1.02,0.2,1.43,0.61c0.41,0.41,0.61,0.88,0.61,1.43s-0.2,1.02-0.61,1.43C75.42,50.35,74.95,50.55,74.4,50.55z M74.4,59.32
		c-0.54,0-1.02-0.2-1.43-0.61c-0.41-0.41-0.61-0.88-0.61-1.43s0.2-1.02,0.61-1.43c0.41-0.41,0.88-0.61,1.43-0.61s1.02,0.2,1.43,0.61
		c0.41,0.41,0.61,0.88,0.61,1.43s-0.2,1.02-0.61,1.43C75.42,59.12,74.95,59.32,74.4,59.32z M42.53,83.31h28v-7.48H39.54v4.42
		c0,0.91,0.28,1.64,0.85,2.21C40.95,83.03,41.67,83.31,42.53,83.31z M39.54,83.31c0,0,0-0.28,0-0.85s0-1.3,0-2.21v-4.42V83.31z"/>
</g>
</svg>
