<?xml version="1.0" encoding="utf-8"?>
<!-- Generator: Adobe Illustrator 26.0.3, SVG Export Plug-In . SVG Version: 6.00 Build 0)  -->
<svg version="1.1" id="Layer_1" xmlns="http://www.w3.org/2000/svg" xmlns:xlink="http://www.w3.org/1999/xlink" x="0px" y="0px"
	 viewBox="0 0 120.49 121.18" style="enable-background:new 0 0 120.49 121.18;" xml:space="preserve">
<style type="text/css">
	.st0{fill:#E61F19;}
	.st1{fill:#FFFFFF;}
</style>
<circle class="st0" cx="60.33" cy="60.4" r="59.56"/>
<path class="st1" d="M81.37,62.93v-5.05H94v5.05H81.37z M85.58,87.34L75.4,79.76l3.03-4.04l10.18,7.58L85.58,87.34z M78.68,45
	l-3.03-4.04l9.93-7.49l3.03,4.04L78.68,45z M37.6,83.97V70.5h-5.9c-1.4,0-2.6-0.49-3.57-1.47c-0.98-0.98-1.47-2.18-1.47-3.57v-10.1
	c0-1.4,0.49-2.6,1.47-3.57c0.98-0.98,2.18-1.47,3.57-1.47h15.16l16.83-10.1v40.41L46.86,70.5h-4.21v13.47
	C42.66,83.97,37.6,83.97,37.6,83.97z M67.07,71.68V49.12c1.52,1.34,2.73,2.99,3.67,4.93c0.92,1.94,1.39,4.05,1.39,6.35
	c0,2.3-0.47,4.42-1.39,6.35C69.81,68.69,68.58,70.34,67.07,71.68z M31.72,55.35L31.72,55.35L31.72,55.35v10.1l0,0l0,0h16.5
	l10.44,6.23V49.12l-10.44,6.23L31.72,55.35L31.72,55.35z M45.18,60.4L45.18,60.4L45.18,60.4L45.18,60.4L45.18,60.4z"/>
</svg>
